<mxfile host="app.diagrams.net" modified="2024-04-21T22:52:46.623Z" agent="Mozilla/5.0 (Windows NT 10.0; Win64; x64) AppleWebKit/537.36 (KHTML, like Gecko) Chrome/124.0.0.0 Safari/537.36 Edg/124.0.0.0" etag="09_tYU1_oApnySjyF2Il" version="24.2.7" type="device">
  <diagram name="PÃ¡gina-1" id="lChZztno7zIBtW4pOQFb">
    <mxGraphModel dx="494" dy="1385" grid="1" gridSize="10" guides="1" tooltips="1" connect="1" arrows="1" fold="1" page="1" pageScale="1" pageWidth="827" pageHeight="1169" math="0" shadow="0">
      <root>
        <mxCell id="0" />
        <mxCell id="1" parent="0" />
        <mxCell id="m214gq9lkK1ID2R3qXPK-62" value="Mobile App&lt;br&gt;Flutter" style="image;sketch=0;aspect=fixed;html=1;points=[];align=center;fontSize=12;image=img/lib/mscae/App_Service_Mobile_App.svg;" parent="1" vertex="1">
          <mxGeometry x="120" y="314" width="34" height="50" as="geometry" />
        </mxCell>
        <mxCell id="m214gq9lkK1ID2R3qXPK-63" value="Load Balancer" style="image;sketch=0;aspect=fixed;html=1;points=[];align=center;fontSize=12;image=img/lib/mscae/Load_Balancer_feature.svg;" parent="1" vertex="1">
          <mxGeometry x="230" y="314" width="50" height="50" as="geometry" />
        </mxCell>
        <mxCell id="m214gq9lkK1ID2R3qXPK-65" value="REST&lt;div&gt;Gateway&lt;/div&gt;" style="sketch=0;html=1;verticalAlign=top;labelPosition=center;verticalLabelPosition=bottom;align=center;spacingTop=-6;fontSize=11;fontStyle=1;fontColor=#999999;shape=image;aspect=fixed;imageAspect=0;image=data:image/svg+xml,PHN2ZyB4bWxucz0iaHR0cDovL3d3dy53My5vcmcvMjAwMC9zdmciIGhlaWdodD0iMzY3LjgxODMyODg1NzQyMTkiIHZpZXdCb3g9IjcuMTA1NDI3MzU3NjAxMDAyZS0xNSAwIDM2Ni40MTAxODY3Njc1NzgxIDM2Ny44MTgzMjg4NTc0MjE5IiBwcmVzZXJ2ZUFzcGVjdFJhdGlvPSJ4TWlkWU1pZCBtZWV0IiB3aWR0aD0iMzY2LjQxMDE5Njc2NzU3OTEiIHZlcnNpb249IjEuMSIgaWQ9InN2Zzk4NyIgem9vbUFuZFBhbj0ibWFnbmlmeSI+JiN4YTsgIDxwYXRoIGQ9Im0gNDguMjUxOTYsMTExLjUzOTA2IGMgLTcuNjE4NjQsMmUtNCAtMTMuNzk0NzIsNi4xNzYyOCAtMTMuNzk0OTMsMTMuNzk0OTIgMi4xZS00LDcuNjE4NjQgNi4xNzYyOSwxMy43OTQ3MiAxMy43OTQ5MywxMy43OTQ5MiBoIDE0NS4xNDY5MiB2IC0yNy41ODk4NCB6IG0gMjM4LjYwODU5LDU3LjQ1MTE3IGggNjUuNzU0NjkgYyA3LjYxODY0LC0yLjFlLTQgMTMuNzk0NzEsLTYuMTc2MjggMTMuNzk0OTIsLTEzLjc5NDkyIC0yLjFlLTQsLTcuNjE4NjQgLTYuMTc2MjgsLTEzLjc5NDcxIC0xMy43OTQ5MiwtMTMuNzk0OTIgSCAyODQuODUwNiBaIE0gMTMuNzk0OTIsMTcwLjk3NDYxIEMgNi4xNzYyODAxLDE3MC45NzQ4MiAyLjEwMDkxOWUtNCwxNzcuMTUwODkgOS4xODk5MjFlLTgsMTg0Ljc2OTUzIC04LjY5OTA4MWUtNCwxOTIuMzg4OTMgNi4xNzU1MjAxLDE5OC41NjYxOSAxMy43OTQ5MiwxOTguNTY2NCBIIDE5My4zOTg4OCBWIDE3MC45NzQ2MSBaIE0gMjg0LjMwNzgsMjI3LjU2NjQgaCA2OC4zMDc0NCBjIDcuNjE4NjQsLTIuMWUtNCAxMy43OTQ3MSwtNi4xNzYyOCAxMy43OTQ5MiwtMTMuNzk0OTIgLTIuMWUtNCwtNy42MTg2NCAtNi4xNzYyOCwtMTMuNzk0NzEgLTEzLjc5NDkyLC0xMy43OTQ5MiBoIC02NS45MjE3OCB6IG0gLTIzNi4wNTU4NCwxLjY5NzI3IGMgLTcuNjE4NjQsMmUtNCAtMTMuNzk0NzIsNi4xNzYyOCAtMTMuNzk0OTMsMTMuNzk0OTIgMi4xZS00LDcuNjE4NjQgNi4xNzYyOSwxMy43OTQ3MiAxMy43OTQ5MywxMy43OTQ5MiBIIDE5My4zOTg4OCBWIDIyOS4yNjM2NyBaIE0gMTg5LjUyMTQ5LDAgYyAtMjQuNTc0MTEsMCAtNDkuMTY3MzcsMjAuMDU1MDcgLTU5LjQzNzUsNzUuMzczMDQgaCAzMC41ODAwNyBjIDQuNjE2MzMsLTI0LjE2MjA2IDE1LjM0ODk2LC00Ny41MjE0OCAyNy44NTM1MiwtNDcuNTIxNDggMTIuMTU4OCwwIDM5LjQ1ODk4LDU3LjQ1MDQ0IDM5LjQ1ODk4LDE2MC40MTQwNiAwLDY5LjkxNTEzIC0xOS41NzgwOSwxNTIuMTE1MjQgLTQxLjE3MTg3LDE1Mi4xMTUyMyAtMTUuMjY4ODEsMmUtNSAtMjEuMjE2NjgsLTI4LjMzMzU2IC0yNS40NDMzNiwtNDYuNzE4NzQgbCAtMzAuNDE0MDYsLTAuMDY4NCBjIDQuMjIwNzQsMjAuNTQwODcgMTYuOTA3NjgsNzQuMjI0NiA1Ny43MTI4OSw3NC4yMjQ2IDUzLjQzNjcyLDAgNjguOTEyMTEsLTExMS45OTMwNSA2OC45MTIxMSwtMTgwLjQ2Mjg5IEMgMjU3LjU3MjI3LDkzLjgwMDc2IDIzNi41ODM0LDAgMTg5LjUyMTQ5LDAgWiIgc3R5bGU9ImNvbG9yOiMwMDAwMDA7b3BhY2l0eToxO2ZpbGw6IzQyODVmNDtmaWxsLW9wYWNpdHk6MTtzdHJva2UtbGluZWNhcDpyb3VuZDstaW5rc2NhcGUtc3Ryb2tlOm5vbmUiLz4mI3hhOzwvc3ZnPg==;" parent="1" vertex="1">
          <mxGeometry x="350" y="318" width="42" height="42" as="geometry" />
        </mxCell>
        <mxCell id="m214gq9lkK1ID2R3qXPK-68" value="&lt;font style=&quot;font-size: 8px;&quot;&gt;Ubuntu Server&lt;/font&gt;" style="shape=umlFrame;whiteSpace=wrap;html=1;pointerEvents=0;width=70;height=15;" parent="1" vertex="1">
          <mxGeometry x="610" y="230" width="280" height="120" as="geometry" />
        </mxCell>
        <mxCell id="m214gq9lkK1ID2R3qXPK-69" value="&lt;font style=&quot;font-size: 8px;&quot;&gt;Docker Container&lt;/font&gt;" style="shape=umlFrame;whiteSpace=wrap;html=1;pointerEvents=0;width=80;height=15;" parent="1" vertex="1">
          <mxGeometry x="690" y="240" width="190" height="100" as="geometry" />
        </mxCell>
        <mxCell id="m214gq9lkK1ID2R3qXPK-70" value="&lt;font style=&quot;font-size: 8px;&quot;&gt;Auth/API&lt;/font&gt;" style="shape=umlFrame;whiteSpace=wrap;html=1;pointerEvents=0;width=50;height=15;" parent="1" vertex="1">
          <mxGeometry x="750" y="260" width="120" height="70" as="geometry" />
        </mxCell>
        <mxCell id="m214gq9lkK1ID2R3qXPK-72" value="&lt;font style=&quot;font-size: 10px;&quot;&gt;Auth/server&lt;/font&gt;" style="image;aspect=fixed;html=1;points=[];align=center;fontSize=12;image=img/lib/azure2/app_services/App_Service_Plans.svg;" parent="1" vertex="1">
          <mxGeometry x="630" y="260" width="42" height="42" as="geometry" />
        </mxCell>
        <mxCell id="m214gq9lkK1ID2R3qXPK-73" value="" style="image;sketch=0;aspect=fixed;html=1;points=[];align=center;fontSize=12;image=img/lib/mscae/Docker.svg;" parent="1" vertex="1">
          <mxGeometry x="700" y="277.25" width="43.29" height="35.5" as="geometry" />
        </mxCell>
        <mxCell id="m214gq9lkK1ID2R3qXPK-74" value="" style="image;aspect=fixed;html=1;points=[];align=center;fontSize=12;image=img/lib/azure2/app_services/API_Management_Services.svg;" parent="1" vertex="1">
          <mxGeometry x="760" y="281.38" width="29.52" height="27.25" as="geometry" />
        </mxCell>
        <mxCell id="m214gq9lkK1ID2R3qXPK-75" value="&lt;font style=&quot;font-size: 8px;&quot;&gt;Auth/API&lt;/font&gt;" style="text;html=1;align=center;verticalAlign=middle;whiteSpace=wrap;rounded=0;" parent="1" vertex="1">
          <mxGeometry x="756.76" y="302" width="36" height="18" as="geometry" />
        </mxCell>
        <mxCell id="m214gq9lkK1ID2R3qXPK-76" value="" style="outlineConnect=0;dashed=0;verticalLabelPosition=bottom;verticalAlign=top;align=center;html=1;shape=mxgraph.aws3.android;fillColor=#806F00;gradientColor=none;" parent="1" vertex="1">
          <mxGeometry x="830" y="280.01" width="26.25" height="30" as="geometry" />
        </mxCell>
        <mxCell id="m214gq9lkK1ID2R3qXPK-77" value="&lt;font style=&quot;font-size: 8px;&quot;&gt;Python&lt;/font&gt;" style="text;html=1;align=center;verticalAlign=middle;whiteSpace=wrap;rounded=0;" parent="1" vertex="1">
          <mxGeometry x="823.13" y="308.63" width="40" height="10" as="geometry" />
        </mxCell>
        <mxCell id="m214gq9lkK1ID2R3qXPK-78" value="" style="endArrow=classic;startArrow=classic;html=1;rounded=0;entryX=0;entryY=0.5;entryDx=0;entryDy=0;entryPerimeter=0;exitX=1.023;exitY=0.507;exitDx=0;exitDy=0;exitPerimeter=0;" parent="1" source="m214gq9lkK1ID2R3qXPK-74" target="m214gq9lkK1ID2R3qXPK-76" edge="1">
          <mxGeometry width="50" height="50" relative="1" as="geometry">
            <mxPoint x="760" y="350" as="sourcePoint" />
            <mxPoint x="810" y="300" as="targetPoint" />
          </mxGeometry>
        </mxCell>
        <mxCell id="m214gq9lkK1ID2R3qXPK-81" value="&lt;font style=&quot;font-size: 8px;&quot;&gt;Ubuntu Server&lt;/font&gt;" style="shape=umlFrame;whiteSpace=wrap;html=1;pointerEvents=0;width=70;height=15;" parent="1" vertex="1">
          <mxGeometry x="520" y="80" width="280" height="120" as="geometry" />
        </mxCell>
        <mxCell id="m214gq9lkK1ID2R3qXPK-82" value="&lt;font style=&quot;font-size: 8px;&quot;&gt;Docker Container&lt;/font&gt;" style="shape=umlFrame;whiteSpace=wrap;html=1;pointerEvents=0;width=80;height=15;" parent="1" vertex="1">
          <mxGeometry x="600" y="90" width="190" height="100" as="geometry" />
        </mxCell>
        <mxCell id="m214gq9lkK1ID2R3qXPK-83" value="&lt;font style=&quot;font-size: 8px;&quot;&gt;Message/API&lt;/font&gt;" style="shape=umlFrame;whiteSpace=wrap;html=1;pointerEvents=0;width=70;height=15;" parent="1" vertex="1">
          <mxGeometry x="660" y="110" width="120" height="70" as="geometry" />
        </mxCell>
        <mxCell id="m214gq9lkK1ID2R3qXPK-84" value="&lt;font style=&quot;font-size: 8px;&quot;&gt;Menagement/server&lt;/font&gt;" style="image;aspect=fixed;html=1;points=[];align=center;fontSize=12;image=img/lib/azure2/app_services/App_Service_Plans.svg;" parent="1" vertex="1">
          <mxGeometry x="540" y="110" width="40" height="40" as="geometry" />
        </mxCell>
        <mxCell id="m214gq9lkK1ID2R3qXPK-85" value="" style="image;sketch=0;aspect=fixed;html=1;points=[];align=center;fontSize=12;image=img/lib/mscae/Docker.svg;" parent="1" vertex="1">
          <mxGeometry x="610" y="127.25" width="43.29" height="35.5" as="geometry" />
        </mxCell>
        <mxCell id="m214gq9lkK1ID2R3qXPK-86" value="" style="image;aspect=fixed;html=1;points=[];align=center;fontSize=12;image=img/lib/azure2/app_services/API_Management_Services.svg;" parent="1" vertex="1">
          <mxGeometry x="673.24" y="131.38" width="29.52" height="27.25" as="geometry" />
        </mxCell>
        <mxCell id="m214gq9lkK1ID2R3qXPK-87" value="&lt;font style=&quot;font-size: 8px;&quot;&gt;Management/API&lt;/font&gt;" style="text;html=1;align=center;verticalAlign=middle;whiteSpace=wrap;rounded=0;" parent="1" vertex="1">
          <mxGeometry x="677" y="152" width="36" height="18" as="geometry" />
        </mxCell>
        <mxCell id="m214gq9lkK1ID2R3qXPK-89" value="&lt;span style=&quot;font-size: 8px;&quot;&gt;.NET&lt;/span&gt;" style="text;html=1;align=center;verticalAlign=middle;whiteSpace=wrap;rounded=0;" parent="1" vertex="1">
          <mxGeometry x="733.13" y="158.63" width="40" height="10" as="geometry" />
        </mxCell>
        <mxCell id="m214gq9lkK1ID2R3qXPK-90" value="" style="endArrow=classic;startArrow=classic;html=1;rounded=0;exitX=1.023;exitY=0.507;exitDx=0;exitDy=0;exitPerimeter=0;entryX=0;entryY=0.5;entryDx=0;entryDy=0;entryPerimeter=0;" parent="1" source="m214gq9lkK1ID2R3qXPK-86" target="m214gq9lkK1ID2R3qXPK-91" edge="1">
          <mxGeometry width="50" height="50" relative="1" as="geometry">
            <mxPoint x="670" y="200" as="sourcePoint" />
            <mxPoint x="720" y="145" as="targetPoint" />
          </mxGeometry>
        </mxCell>
        <mxCell id="m214gq9lkK1ID2R3qXPK-91" value="" style="outlineConnect=0;dashed=0;verticalLabelPosition=bottom;verticalAlign=top;align=center;html=1;shape=mxgraph.aws3.android;fillColor=#FFCCFF;gradientColor=none;" parent="1" vertex="1">
          <mxGeometry x="740.01" y="130" width="26.25" height="30" as="geometry" />
        </mxCell>
        <mxCell id="m214gq9lkK1ID2R3qXPK-105" value="&lt;font style=&quot;font-size: 8px;&quot;&gt;Ubuntu Server&lt;/font&gt;" style="shape=umlFrame;whiteSpace=wrap;html=1;pointerEvents=0;width=70;height=15;" parent="1" vertex="1">
          <mxGeometry x="950" y="80" width="280" height="120" as="geometry" />
        </mxCell>
        <mxCell id="m214gq9lkK1ID2R3qXPK-106" value="&lt;font style=&quot;font-size: 8px;&quot;&gt;Docker Container&lt;/font&gt;" style="shape=umlFrame;whiteSpace=wrap;html=1;pointerEvents=0;width=80;height=15;" parent="1" vertex="1">
          <mxGeometry x="1030" y="90" width="190" height="100" as="geometry" />
        </mxCell>
        <mxCell id="m214gq9lkK1ID2R3qXPK-107" value="&lt;span style=&quot;font-size: 8px;&quot;&gt;Database/users&lt;/span&gt;" style="shape=umlFrame;whiteSpace=wrap;html=1;pointerEvents=0;width=80;height=15;" parent="1" vertex="1">
          <mxGeometry x="1090" y="110" width="120" height="70" as="geometry" />
        </mxCell>
        <mxCell id="m214gq9lkK1ID2R3qXPK-108" value="&lt;span style=&quot;font-size: 10px;&quot;&gt;Users/Db&lt;br&gt;&lt;/span&gt;" style="image;aspect=fixed;html=1;points=[];align=center;fontSize=12;image=img/lib/azure2/app_services/App_Service_Plans.svg;" parent="1" vertex="1">
          <mxGeometry x="970" y="110" width="42" height="42" as="geometry" />
        </mxCell>
        <mxCell id="m214gq9lkK1ID2R3qXPK-109" value="" style="image;sketch=0;aspect=fixed;html=1;points=[];align=center;fontSize=12;image=img/lib/mscae/Docker.svg;" parent="1" vertex="1">
          <mxGeometry x="1040" y="127.25" width="43.29" height="35.5" as="geometry" />
        </mxCell>
        <mxCell id="m214gq9lkK1ID2R3qXPK-115" value="Load Balancer" style="image;sketch=0;aspect=fixed;html=1;points=[];align=center;fontSize=12;image=img/lib/mscae/Load_Balancer_feature.svg;" parent="1" vertex="1">
          <mxGeometry x="520" y="256" width="50" height="50" as="geometry" />
        </mxCell>
        <mxCell id="m214gq9lkK1ID2R3qXPK-120" value="" style="endArrow=none;html=1;rounded=0;entryX=-0.002;entryY=0.497;entryDx=0;entryDy=0;entryPerimeter=0;exitX=1.002;exitY=0.497;exitDx=0;exitDy=0;exitPerimeter=0;" parent="1" source="m214gq9lkK1ID2R3qXPK-62" target="m214gq9lkK1ID2R3qXPK-63" edge="1">
          <mxGeometry width="50" height="50" relative="1" as="geometry">
            <mxPoint x="154" y="450" as="sourcePoint" />
            <mxPoint x="204" y="400" as="targetPoint" />
          </mxGeometry>
        </mxCell>
        <mxCell id="m214gq9lkK1ID2R3qXPK-121" value="" style="endArrow=none;html=1;rounded=0;entryX=0;entryY=0.5;entryDx=0;entryDy=0;exitX=0.998;exitY=0.497;exitDx=0;exitDy=0;exitPerimeter=0;" parent="1" source="m214gq9lkK1ID2R3qXPK-63" target="m214gq9lkK1ID2R3qXPK-65" edge="1">
          <mxGeometry width="50" height="50" relative="1" as="geometry">
            <mxPoint x="290" y="414" as="sourcePoint" />
            <mxPoint x="340" y="364" as="targetPoint" />
          </mxGeometry>
        </mxCell>
        <mxCell id="m214gq9lkK1ID2R3qXPK-122" value="" style="endArrow=none;html=1;rounded=0;entryX=0;entryY=0.495;entryDx=0;entryDy=0;entryPerimeter=0;exitX=1;exitY=0.5;exitDx=0;exitDy=0;" parent="1" source="m214gq9lkK1ID2R3qXPK-65" target="m214gq9lkK1ID2R3qXPK-115" edge="1">
          <mxGeometry width="50" height="50" relative="1" as="geometry">
            <mxPoint x="430" y="380" as="sourcePoint" />
            <mxPoint x="480" y="330" as="targetPoint" />
            <Array as="points">
              <mxPoint x="460" y="339" />
              <mxPoint x="460" y="281" />
            </Array>
          </mxGeometry>
        </mxCell>
        <mxCell id="m214gq9lkK1ID2R3qXPK-123" value="" style="endArrow=none;html=1;rounded=0;exitX=1;exitY=0.495;exitDx=0;exitDy=0;exitPerimeter=0;entryX=0;entryY=0.423;entryDx=0;entryDy=0;entryPerimeter=0;" parent="1" source="m214gq9lkK1ID2R3qXPK-115" target="m214gq9lkK1ID2R3qXPK-68" edge="1">
          <mxGeometry width="50" height="50" relative="1" as="geometry">
            <mxPoint x="550" y="390" as="sourcePoint" />
            <mxPoint x="600" y="300" as="targetPoint" />
          </mxGeometry>
        </mxCell>
        <mxCell id="m214gq9lkK1ID2R3qXPK-124" value="" style="endArrow=none;html=1;rounded=0;exitX=1;exitY=0.5;exitDx=0;exitDy=0;entryX=-0.003;entryY=0.498;entryDx=0;entryDy=0;entryPerimeter=0;" parent="1" source="m214gq9lkK1ID2R3qXPK-65" target="m214gq9lkK1ID2R3qXPK-81" edge="1">
          <mxGeometry width="50" height="50" relative="1" as="geometry">
            <mxPoint x="400" y="240" as="sourcePoint" />
            <mxPoint x="450" y="190" as="targetPoint" />
            <Array as="points">
              <mxPoint x="460" y="339" />
              <mxPoint x="460" y="140" />
            </Array>
          </mxGeometry>
        </mxCell>
        <mxCell id="m214gq9lkK1ID2R3qXPK-125" value="" style="endArrow=none;html=1;rounded=0;exitX=1;exitY=0.5;exitDx=0;exitDy=0;exitPerimeter=0;entryX=-0.002;entryY=0.5;entryDx=0;entryDy=0;entryPerimeter=0;" parent="1" source="m214gq9lkK1ID2R3qXPK-68" target="m214gq9lkK1ID2R3qXPK-105" edge="1">
          <mxGeometry width="50" height="50" relative="1" as="geometry">
            <mxPoint x="940" y="300" as="sourcePoint" />
            <mxPoint x="1000" y="262.75" as="targetPoint" />
            <Array as="points">
              <mxPoint x="920" y="290" />
              <mxPoint x="920" y="140" />
            </Array>
          </mxGeometry>
        </mxCell>
        <mxCell id="m214gq9lkK1ID2R3qXPK-127" value="" style="endArrow=none;html=1;rounded=0;exitX=1.001;exitY=0.5;exitDx=0;exitDy=0;exitPerimeter=0;entryX=-0.002;entryY=0.5;entryDx=0;entryDy=0;entryPerimeter=0;" parent="1" source="m214gq9lkK1ID2R3qXPK-81" target="m214gq9lkK1ID2R3qXPK-105" edge="1">
          <mxGeometry width="50" height="50" relative="1" as="geometry">
            <mxPoint x="840" y="202" as="sourcePoint" />
            <mxPoint x="940" y="140" as="targetPoint" />
          </mxGeometry>
        </mxCell>
        <mxCell id="m214gq9lkK1ID2R3qXPK-128" value="" style="image;aspect=fixed;html=1;points=[];align=center;fontSize=12;image=img/lib/azure2/databases/Azure_Database_MySQL_Server.svg;" parent="1" vertex="1">
          <mxGeometry x="1108.26" y="131.75" width="28.69" height="38.25" as="geometry" />
        </mxCell>
        <mxCell id="m214gq9lkK1ID2R3qXPK-129" value="&lt;font style=&quot;font-size: 8px;&quot;&gt;Ubuntu Server&lt;/font&gt;" style="shape=umlFrame;whiteSpace=wrap;html=1;pointerEvents=0;width=70;height=15;" parent="1" vertex="1">
          <mxGeometry x="520" y="-70" width="280" height="120" as="geometry" />
        </mxCell>
        <mxCell id="m214gq9lkK1ID2R3qXPK-130" value="&lt;font style=&quot;font-size: 8px;&quot;&gt;Docker Container&lt;/font&gt;" style="shape=umlFrame;whiteSpace=wrap;html=1;pointerEvents=0;width=80;height=15;" parent="1" vertex="1">
          <mxGeometry x="600" y="-60" width="190" height="100" as="geometry" />
        </mxCell>
        <mxCell id="m214gq9lkK1ID2R3qXPK-131" value="&lt;font style=&quot;font-size: 8px;&quot;&gt;Message/API&lt;/font&gt;" style="shape=umlFrame;whiteSpace=wrap;html=1;pointerEvents=0;width=70;height=15;" parent="1" vertex="1">
          <mxGeometry x="660" y="-40" width="120" height="70" as="geometry" />
        </mxCell>
        <mxCell id="m214gq9lkK1ID2R3qXPK-132" value="&lt;font style=&quot;font-size: 10px;&quot;&gt;Message/server&lt;/font&gt;" style="image;aspect=fixed;html=1;points=[];align=center;fontSize=12;image=img/lib/azure2/app_services/App_Service_Plans.svg;" parent="1" vertex="1">
          <mxGeometry x="540" y="-40" width="42" height="42" as="geometry" />
        </mxCell>
        <mxCell id="m214gq9lkK1ID2R3qXPK-133" value="" style="image;sketch=0;aspect=fixed;html=1;points=[];align=center;fontSize=12;image=img/lib/mscae/Docker.svg;" parent="1" vertex="1">
          <mxGeometry x="610" y="-22.75" width="43.29" height="35.5" as="geometry" />
        </mxCell>
        <mxCell id="m214gq9lkK1ID2R3qXPK-134" value="" style="image;aspect=fixed;html=1;points=[];align=center;fontSize=12;image=img/lib/azure2/app_services/API_Management_Services.svg;" parent="1" vertex="1">
          <mxGeometry x="672" y="-18.620000000000005" width="29.52" height="27.25" as="geometry" />
        </mxCell>
        <mxCell id="m214gq9lkK1ID2R3qXPK-135" value="&lt;font style=&quot;font-size: 8px;&quot;&gt;Message/Socket&lt;/font&gt;" style="text;html=1;align=center;verticalAlign=middle;whiteSpace=wrap;rounded=0;" parent="1" vertex="1">
          <mxGeometry x="677" y="2" width="36" height="18" as="geometry" />
        </mxCell>
        <mxCell id="m214gq9lkK1ID2R3qXPK-136" value="&lt;span style=&quot;font-size: 8px;&quot;&gt;Golang&lt;/span&gt;" style="text;html=1;align=center;verticalAlign=middle;whiteSpace=wrap;rounded=0;" parent="1" vertex="1">
          <mxGeometry x="733.13" y="8.629999999999995" width="40" height="10" as="geometry" />
        </mxCell>
        <mxCell id="m214gq9lkK1ID2R3qXPK-137" value="" style="endArrow=classic;startArrow=classic;html=1;rounded=0;exitX=1.023;exitY=0.507;exitDx=0;exitDy=0;exitPerimeter=0;entryX=0;entryY=0.5;entryDx=0;entryDy=0;entryPerimeter=0;" parent="1" source="m214gq9lkK1ID2R3qXPK-134" target="m214gq9lkK1ID2R3qXPK-138" edge="1">
          <mxGeometry width="50" height="50" relative="1" as="geometry">
            <mxPoint x="670" y="50" as="sourcePoint" />
            <mxPoint x="720" y="-5" as="targetPoint" />
          </mxGeometry>
        </mxCell>
        <mxCell id="m214gq9lkK1ID2R3qXPK-138" value="" style="outlineConnect=0;dashed=0;verticalLabelPosition=bottom;verticalAlign=top;align=center;html=1;shape=mxgraph.aws3.android;fillColor=#007FFF;gradientColor=none;" parent="1" vertex="1">
          <mxGeometry x="740.01" y="-20" width="26.25" height="30" as="geometry" />
        </mxCell>
        <mxCell id="m214gq9lkK1ID2R3qXPK-140" value="&lt;font style=&quot;font-size: 8px;&quot;&gt;Ubuntu Server&lt;/font&gt;" style="shape=umlFrame;whiteSpace=wrap;html=1;pointerEvents=0;width=70;height=15;" parent="1" vertex="1">
          <mxGeometry x="950" y="-70" width="280" height="120" as="geometry" />
        </mxCell>
        <mxCell id="m214gq9lkK1ID2R3qXPK-141" value="&lt;font style=&quot;font-size: 8px;&quot;&gt;Docker Container&lt;/font&gt;" style="shape=umlFrame;whiteSpace=wrap;html=1;pointerEvents=0;width=80;height=15;" parent="1" vertex="1">
          <mxGeometry x="1030" y="-60" width="190" height="100" as="geometry" />
        </mxCell>
        <mxCell id="m214gq9lkK1ID2R3qXPK-142" value="&lt;span style=&quot;font-size: 8px;&quot;&gt;Database/message&lt;/span&gt;" style="shape=umlFrame;whiteSpace=wrap;html=1;pointerEvents=0;width=90;height=15;" parent="1" vertex="1">
          <mxGeometry x="1090" y="-40" width="120" height="70" as="geometry" />
        </mxCell>
        <mxCell id="m214gq9lkK1ID2R3qXPK-143" value="&lt;span style=&quot;font-size: 10px;&quot;&gt;Message/DB&lt;/span&gt;" style="image;aspect=fixed;html=1;points=[];align=center;fontSize=12;image=img/lib/azure2/app_services/App_Service_Plans.svg;" parent="1" vertex="1">
          <mxGeometry x="970" y="-40" width="42" height="42" as="geometry" />
        </mxCell>
        <mxCell id="m214gq9lkK1ID2R3qXPK-144" value="" style="image;sketch=0;aspect=fixed;html=1;points=[];align=center;fontSize=12;image=img/lib/mscae/Docker.svg;" parent="1" vertex="1">
          <mxGeometry x="1040" y="-22.75" width="43.29" height="35.5" as="geometry" />
        </mxCell>
        <mxCell id="m214gq9lkK1ID2R3qXPK-146" value="" style="dashed=0;outlineConnect=0;html=1;align=center;labelPosition=center;verticalLabelPosition=bottom;verticalAlign=top;shape=mxgraph.weblogos.mongodb" parent="1" vertex="1">
          <mxGeometry x="1113.05" y="-21.37" width="23.9" height="50" as="geometry" />
        </mxCell>
        <mxCell id="m214gq9lkK1ID2R3qXPK-147" value="&lt;font style=&quot;font-size: 10px;&quot;&gt;Message&lt;br&gt;MongoDB&lt;/font&gt;" style="text;html=1;align=center;verticalAlign=middle;whiteSpace=wrap;rounded=0;" parent="1" vertex="1">
          <mxGeometry x="1136.95" y="-11.370000000000001" width="60" height="30" as="geometry" />
        </mxCell>
        <mxCell id="m214gq9lkK1ID2R3qXPK-148" value="&lt;font style=&quot;font-size: 10px;&quot;&gt;Users&lt;br&gt;Mysql&lt;/font&gt;" style="text;html=1;align=center;verticalAlign=middle;whiteSpace=wrap;rounded=0;" parent="1" vertex="1">
          <mxGeometry x="1136.95" y="135.88" width="60" height="30" as="geometry" />
        </mxCell>
        <mxCell id="m214gq9lkK1ID2R3qXPK-149" value="" style="endArrow=none;html=1;rounded=0;entryX=0;entryY=0.5;entryDx=0;entryDy=0;entryPerimeter=0;exitX=1;exitY=0.5;exitDx=0;exitDy=0;exitPerimeter=0;" parent="1" source="m214gq9lkK1ID2R3qXPK-129" target="m214gq9lkK1ID2R3qXPK-140" edge="1">
          <mxGeometry width="50" height="50" relative="1" as="geometry">
            <mxPoint x="830" y="80" as="sourcePoint" />
            <mxPoint x="880" y="30" as="targetPoint" />
          </mxGeometry>
        </mxCell>
        <mxCell id="m214gq9lkK1ID2R3qXPK-150" value="" style="endArrow=none;html=1;rounded=0;entryX=-0.001;entryY=0.502;entryDx=0;entryDy=0;entryPerimeter=0;exitX=1;exitY=0.5;exitDx=0;exitDy=0;" parent="1" source="m214gq9lkK1ID2R3qXPK-65" target="m214gq9lkK1ID2R3qXPK-129" edge="1">
          <mxGeometry width="50" height="50" relative="1" as="geometry">
            <mxPoint x="380" y="78.63" as="sourcePoint" />
            <mxPoint x="430" y="28.630000000000003" as="targetPoint" />
            <Array as="points">
              <mxPoint x="460" y="339" />
              <mxPoint x="460" y="-10" />
            </Array>
          </mxGeometry>
        </mxCell>
        <mxCell id="m214gq9lkK1ID2R3qXPK-151" value="&lt;font style=&quot;font-size: 8px;&quot;&gt;Ubuntu Server&lt;/font&gt;" style="shape=umlFrame;whiteSpace=wrap;html=1;pointerEvents=0;width=70;height=15;" parent="1" vertex="1">
          <mxGeometry x="520" y="390" width="280" height="120" as="geometry" />
        </mxCell>
        <mxCell id="m214gq9lkK1ID2R3qXPK-152" value="&lt;font style=&quot;font-size: 8px;&quot;&gt;Docker Container&lt;/font&gt;" style="shape=umlFrame;whiteSpace=wrap;html=1;pointerEvents=0;width=80;height=15;" parent="1" vertex="1">
          <mxGeometry x="600" y="400" width="190" height="100" as="geometry" />
        </mxCell>
        <mxCell id="m214gq9lkK1ID2R3qXPK-153" value="&lt;font style=&quot;font-size: 8px;&quot;&gt;Routes/API&lt;/font&gt;" style="shape=umlFrame;whiteSpace=wrap;html=1;pointerEvents=0;width=70;height=15;" parent="1" vertex="1">
          <mxGeometry x="660" y="420" width="120" height="70" as="geometry" />
        </mxCell>
        <mxCell id="m214gq9lkK1ID2R3qXPK-154" value="&lt;font style=&quot;font-size: 10px;&quot;&gt;Routes/server&lt;/font&gt;" style="image;aspect=fixed;html=1;points=[];align=center;fontSize=12;image=img/lib/azure2/app_services/App_Service_Plans.svg;" parent="1" vertex="1">
          <mxGeometry x="540" y="420" width="42" height="42" as="geometry" />
        </mxCell>
        <mxCell id="m214gq9lkK1ID2R3qXPK-155" value="" style="image;sketch=0;aspect=fixed;html=1;points=[];align=center;fontSize=12;image=img/lib/mscae/Docker.svg;" parent="1" vertex="1">
          <mxGeometry x="610" y="437.25" width="43.29" height="35.5" as="geometry" />
        </mxCell>
        <mxCell id="m214gq9lkK1ID2R3qXPK-156" value="" style="image;aspect=fixed;html=1;points=[];align=center;fontSize=12;image=img/lib/azure2/app_services/API_Management_Services.svg;" parent="1" vertex="1">
          <mxGeometry x="672" y="441.38" width="29.52" height="27.25" as="geometry" />
        </mxCell>
        <mxCell id="m214gq9lkK1ID2R3qXPK-157" value="&lt;span style=&quot;font-size: 8px;&quot;&gt;Routes/API&lt;/span&gt;" style="text;html=1;align=center;verticalAlign=middle;whiteSpace=wrap;rounded=0;" parent="1" vertex="1">
          <mxGeometry x="668.76" y="464.63" width="36" height="18" as="geometry" />
        </mxCell>
        <mxCell id="m214gq9lkK1ID2R3qXPK-158" value="&lt;span style=&quot;font-size: 8px;&quot;&gt;Golang&lt;/span&gt;" style="text;html=1;align=center;verticalAlign=middle;whiteSpace=wrap;rounded=0;" parent="1" vertex="1">
          <mxGeometry x="733.13" y="468.63" width="40" height="10" as="geometry" />
        </mxCell>
        <mxCell id="m214gq9lkK1ID2R3qXPK-159" value="" style="endArrow=classic;startArrow=classic;html=1;rounded=0;exitX=1.023;exitY=0.507;exitDx=0;exitDy=0;exitPerimeter=0;entryX=0;entryY=0.5;entryDx=0;entryDy=0;entryPerimeter=0;" parent="1" source="m214gq9lkK1ID2R3qXPK-156" target="m214gq9lkK1ID2R3qXPK-160" edge="1">
          <mxGeometry width="50" height="50" relative="1" as="geometry">
            <mxPoint x="670" y="510" as="sourcePoint" />
            <mxPoint x="720" y="455" as="targetPoint" />
          </mxGeometry>
        </mxCell>
        <mxCell id="m214gq9lkK1ID2R3qXPK-160" value="" style="outlineConnect=0;dashed=0;verticalLabelPosition=bottom;verticalAlign=top;align=center;html=1;shape=mxgraph.aws3.android;fillColor=#007FFF;gradientColor=none;" parent="1" vertex="1">
          <mxGeometry x="740.01" y="440" width="26.25" height="30" as="geometry" />
        </mxCell>
        <mxCell id="m214gq9lkK1ID2R3qXPK-161" value="&lt;font style=&quot;font-size: 8px;&quot;&gt;Ubuntu Server&lt;/font&gt;" style="shape=umlFrame;whiteSpace=wrap;html=1;pointerEvents=0;width=70;height=15;" parent="1" vertex="1">
          <mxGeometry x="880" y="390" width="280" height="120" as="geometry" />
        </mxCell>
        <mxCell id="m214gq9lkK1ID2R3qXPK-162" value="&lt;font style=&quot;font-size: 8px;&quot;&gt;Docker Container&lt;/font&gt;" style="shape=umlFrame;whiteSpace=wrap;html=1;pointerEvents=0;width=80;height=15;" parent="1" vertex="1">
          <mxGeometry x="960" y="400" width="190" height="100" as="geometry" />
        </mxCell>
        <mxCell id="m214gq9lkK1ID2R3qXPK-163" value="&lt;span style=&quot;font-size: 8px;&quot;&gt;Database/routes&lt;/span&gt;" style="shape=umlFrame;whiteSpace=wrap;html=1;pointerEvents=0;width=80;height=15;" parent="1" vertex="1">
          <mxGeometry x="1020" y="420" width="120" height="70" as="geometry" />
        </mxCell>
        <mxCell id="m214gq9lkK1ID2R3qXPK-164" value="&lt;span style=&quot;font-size: 10px;&quot;&gt;Routes/Db&lt;br&gt;&lt;/span&gt;" style="image;aspect=fixed;html=1;points=[];align=center;fontSize=12;image=img/lib/azure2/app_services/App_Service_Plans.svg;" parent="1" vertex="1">
          <mxGeometry x="900" y="420" width="40" height="40" as="geometry" />
        </mxCell>
        <mxCell id="m214gq9lkK1ID2R3qXPK-165" value="" style="image;sketch=0;aspect=fixed;html=1;points=[];align=center;fontSize=12;image=img/lib/mscae/Docker.svg;" parent="1" vertex="1">
          <mxGeometry x="970" y="437.25" width="43.29" height="35.5" as="geometry" />
        </mxCell>
        <mxCell id="m214gq9lkK1ID2R3qXPK-167" value="&lt;font style=&quot;font-size: 10px;&quot;&gt;Routes&lt;br&gt;PostgreSQL&lt;br&gt;&lt;/font&gt;" style="text;html=1;align=center;verticalAlign=middle;whiteSpace=wrap;rounded=0;" parent="1" vertex="1">
          <mxGeometry x="1070" y="448.44" width="60" height="30" as="geometry" />
        </mxCell>
        <mxCell id="m214gq9lkK1ID2R3qXPK-168" value="" style="image;aspect=fixed;html=1;points=[];align=center;fontSize=12;image=img/lib/azure2/databases/Azure_Database_PostgreSQL_Server.svg;" parent="1" vertex="1">
          <mxGeometry x="1036.06" y="441.38" width="33.09" height="44.12" as="geometry" />
        </mxCell>
        <mxCell id="m214gq9lkK1ID2R3qXPK-169" value="" style="endArrow=none;html=1;rounded=0;entryX=-0.004;entryY=0.5;entryDx=0;entryDy=0;entryPerimeter=0;exitX=1;exitY=0.5;exitDx=0;exitDy=0;exitPerimeter=0;" parent="1" source="m214gq9lkK1ID2R3qXPK-151" target="m214gq9lkK1ID2R3qXPK-161" edge="1">
          <mxGeometry width="50" height="50" relative="1" as="geometry">
            <mxPoint x="780" y="470" as="sourcePoint" />
            <mxPoint x="830" y="420" as="targetPoint" />
          </mxGeometry>
        </mxCell>
        <mxCell id="m214gq9lkK1ID2R3qXPK-170" value="" style="endArrow=none;html=1;rounded=0;entryX=0.003;entryY=0.5;entryDx=0;entryDy=0;entryPerimeter=0;exitX=1;exitY=0.5;exitDx=0;exitDy=0;" parent="1" source="m214gq9lkK1ID2R3qXPK-65" target="m214gq9lkK1ID2R3qXPK-151" edge="1">
          <mxGeometry width="50" height="50" relative="1" as="geometry">
            <mxPoint x="414" y="450" as="sourcePoint" />
            <mxPoint x="464" y="400" as="targetPoint" />
            <Array as="points">
              <mxPoint x="460" y="339" />
              <mxPoint x="460" y="450" />
            </Array>
          </mxGeometry>
        </mxCell>
        <mxCell id="m214gq9lkK1ID2R3qXPK-171" value="&lt;font style=&quot;font-size: 8px;&quot;&gt;Ubuntu Server&lt;/font&gt;" style="shape=umlFrame;whiteSpace=wrap;html=1;pointerEvents=0;width=70;height=15;" parent="1" vertex="1">
          <mxGeometry x="520" y="680" width="280" height="120" as="geometry" />
        </mxCell>
        <mxCell id="m214gq9lkK1ID2R3qXPK-172" value="&lt;font style=&quot;font-size: 8px;&quot;&gt;Docker Container&lt;/font&gt;" style="shape=umlFrame;whiteSpace=wrap;html=1;pointerEvents=0;width=80;height=15;" parent="1" vertex="1">
          <mxGeometry x="600" y="690" width="190" height="100" as="geometry" />
        </mxCell>
        <mxCell id="m214gq9lkK1ID2R3qXPK-173" value="&lt;font style=&quot;font-size: 8px;&quot;&gt;Location/socket&lt;/font&gt;" style="shape=umlFrame;whiteSpace=wrap;html=1;pointerEvents=0;width=80;height=15;" parent="1" vertex="1">
          <mxGeometry x="660" y="710" width="120" height="70" as="geometry" />
        </mxCell>
        <mxCell id="m214gq9lkK1ID2R3qXPK-174" value="&lt;font style=&quot;font-size: 10px;&quot;&gt;Location/server&lt;/font&gt;" style="image;aspect=fixed;html=1;points=[];align=center;fontSize=12;image=img/lib/azure2/app_services/App_Service_Plans.svg;" parent="1" vertex="1">
          <mxGeometry x="540" y="710" width="42" height="42" as="geometry" />
        </mxCell>
        <mxCell id="m214gq9lkK1ID2R3qXPK-175" value="" style="image;sketch=0;aspect=fixed;html=1;points=[];align=center;fontSize=12;image=img/lib/mscae/Docker.svg;" parent="1" vertex="1">
          <mxGeometry x="610" y="727.25" width="43.29" height="35.5" as="geometry" />
        </mxCell>
        <mxCell id="m214gq9lkK1ID2R3qXPK-176" value="" style="image;aspect=fixed;html=1;points=[];align=center;fontSize=12;image=img/lib/azure2/app_services/API_Management_Services.svg;" parent="1" vertex="1">
          <mxGeometry x="672" y="731.38" width="29.52" height="27.25" as="geometry" />
        </mxCell>
        <mxCell id="m214gq9lkK1ID2R3qXPK-177" value="&lt;font style=&quot;font-size: 8px;&quot;&gt;location/Socket&lt;/font&gt;" style="text;html=1;align=center;verticalAlign=middle;whiteSpace=wrap;rounded=0;" parent="1" vertex="1">
          <mxGeometry x="673.24" y="752" width="36" height="18" as="geometry" />
        </mxCell>
        <mxCell id="m214gq9lkK1ID2R3qXPK-178" value="&lt;span style=&quot;font-size: 8px;&quot;&gt;Golang&lt;/span&gt;" style="text;html=1;align=center;verticalAlign=middle;whiteSpace=wrap;rounded=0;" parent="1" vertex="1">
          <mxGeometry x="733.13" y="758.63" width="40" height="10" as="geometry" />
        </mxCell>
        <mxCell id="m214gq9lkK1ID2R3qXPK-179" value="" style="endArrow=classic;startArrow=classic;html=1;rounded=0;exitX=1.023;exitY=0.507;exitDx=0;exitDy=0;exitPerimeter=0;entryX=0;entryY=0.5;entryDx=0;entryDy=0;entryPerimeter=0;" parent="1" source="m214gq9lkK1ID2R3qXPK-176" target="m214gq9lkK1ID2R3qXPK-180" edge="1">
          <mxGeometry width="50" height="50" relative="1" as="geometry">
            <mxPoint x="670" y="800" as="sourcePoint" />
            <mxPoint x="720" y="745" as="targetPoint" />
          </mxGeometry>
        </mxCell>
        <mxCell id="m214gq9lkK1ID2R3qXPK-180" value="" style="outlineConnect=0;dashed=0;verticalLabelPosition=bottom;verticalAlign=top;align=center;html=1;shape=mxgraph.aws3.android;fillColor=#007FFF;gradientColor=none;" parent="1" vertex="1">
          <mxGeometry x="740.01" y="730" width="26.25" height="30" as="geometry" />
        </mxCell>
        <mxCell id="m214gq9lkK1ID2R3qXPK-189" value="" style="endArrow=none;html=1;rounded=0;entryX=-0.005;entryY=0.501;entryDx=0;entryDy=0;entryPerimeter=0;exitX=1;exitY=0.5;exitDx=0;exitDy=0;" parent="1" source="m214gq9lkK1ID2R3qXPK-65" target="m214gq9lkK1ID2R3qXPK-171" edge="1">
          <mxGeometry width="50" height="50" relative="1" as="geometry">
            <mxPoint x="370" y="585" as="sourcePoint" />
            <mxPoint x="420" y="535" as="targetPoint" />
            <Array as="points">
              <mxPoint x="460" y="339" />
              <mxPoint x="460" y="590" />
              <mxPoint x="460" y="740" />
            </Array>
          </mxGeometry>
        </mxCell>
        <mxCell id="m214gq9lkK1ID2R3qXPK-190" value="&lt;font style=&quot;font-size: 8px;&quot;&gt;Ubuntu Server&lt;/font&gt;" style="shape=umlFrame;whiteSpace=wrap;html=1;pointerEvents=0;width=70;height=15;" parent="1" vertex="1">
          <mxGeometry x="520" y="530" width="280" height="120" as="geometry" />
        </mxCell>
        <mxCell id="m214gq9lkK1ID2R3qXPK-191" value="&lt;font style=&quot;font-size: 8px;&quot;&gt;Docker Container&lt;/font&gt;" style="shape=umlFrame;whiteSpace=wrap;html=1;pointerEvents=0;width=80;height=15;" parent="1" vertex="1">
          <mxGeometry x="600" y="540" width="190" height="100" as="geometry" />
        </mxCell>
        <mxCell id="m214gq9lkK1ID2R3qXPK-192" value="&lt;font style=&quot;font-size: 8px;&quot;&gt;Notification/API&lt;/font&gt;" style="shape=umlFrame;whiteSpace=wrap;html=1;pointerEvents=0;width=70;height=15;" parent="1" vertex="1">
          <mxGeometry x="660" y="560" width="120" height="70" as="geometry" />
        </mxCell>
        <mxCell id="m214gq9lkK1ID2R3qXPK-193" value="&lt;font style=&quot;font-size: 8px;&quot;&gt;Notification/server&lt;/font&gt;" style="image;aspect=fixed;html=1;points=[];align=center;fontSize=12;image=img/lib/azure2/app_services/App_Service_Plans.svg;" parent="1" vertex="1">
          <mxGeometry x="540" y="560" width="42" height="42" as="geometry" />
        </mxCell>
        <mxCell id="m214gq9lkK1ID2R3qXPK-194" value="" style="image;sketch=0;aspect=fixed;html=1;points=[];align=center;fontSize=12;image=img/lib/mscae/Docker.svg;" parent="1" vertex="1">
          <mxGeometry x="610" y="577.25" width="43.29" height="35.5" as="geometry" />
        </mxCell>
        <mxCell id="m214gq9lkK1ID2R3qXPK-195" value="" style="image;aspect=fixed;html=1;points=[];align=center;fontSize=12;image=img/lib/azure2/app_services/API_Management_Services.svg;" parent="1" vertex="1">
          <mxGeometry x="672" y="581.38" width="29.52" height="27.25" as="geometry" />
        </mxCell>
        <mxCell id="m214gq9lkK1ID2R3qXPK-196" value="&lt;span style=&quot;font-size: 8px;&quot;&gt;Notification/API&lt;/span&gt;" style="text;html=1;align=center;verticalAlign=middle;whiteSpace=wrap;rounded=0;" parent="1" vertex="1">
          <mxGeometry x="672" y="604.63" width="36" height="18" as="geometry" />
        </mxCell>
        <mxCell id="m214gq9lkK1ID2R3qXPK-197" value="&lt;span style=&quot;font-size: 8px;&quot;&gt;Golang&lt;/span&gt;" style="text;html=1;align=center;verticalAlign=middle;whiteSpace=wrap;rounded=0;" parent="1" vertex="1">
          <mxGeometry x="733.13" y="608.63" width="40" height="10" as="geometry" />
        </mxCell>
        <mxCell id="m214gq9lkK1ID2R3qXPK-198" value="" style="endArrow=classic;startArrow=classic;html=1;rounded=0;exitX=1.023;exitY=0.507;exitDx=0;exitDy=0;exitPerimeter=0;entryX=0;entryY=0.5;entryDx=0;entryDy=0;entryPerimeter=0;" parent="1" source="m214gq9lkK1ID2R3qXPK-195" target="m214gq9lkK1ID2R3qXPK-199" edge="1">
          <mxGeometry width="50" height="50" relative="1" as="geometry">
            <mxPoint x="670" y="650" as="sourcePoint" />
            <mxPoint x="720" y="595" as="targetPoint" />
          </mxGeometry>
        </mxCell>
        <mxCell id="m214gq9lkK1ID2R3qXPK-199" value="" style="outlineConnect=0;dashed=0;verticalLabelPosition=bottom;verticalAlign=top;align=center;html=1;shape=mxgraph.aws3.android;fillColor=#007FFF;gradientColor=none;" parent="1" vertex="1">
          <mxGeometry x="740.01" y="580" width="26.25" height="30" as="geometry" />
        </mxCell>
        <mxCell id="m214gq9lkK1ID2R3qXPK-200" value="" style="endArrow=none;html=1;rounded=0;entryX=-0.002;entryY=0.498;entryDx=0;entryDy=0;entryPerimeter=0;exitX=1;exitY=0.5;exitDx=0;exitDy=0;" parent="1" source="m214gq9lkK1ID2R3qXPK-65" target="m214gq9lkK1ID2R3qXPK-190" edge="1">
          <mxGeometry width="50" height="50" relative="1" as="geometry">
            <mxPoint x="420" y="700" as="sourcePoint" />
            <mxPoint x="470" y="650" as="targetPoint" />
            <Array as="points">
              <mxPoint x="460" y="339" />
              <mxPoint x="460" y="590" />
            </Array>
          </mxGeometry>
        </mxCell>
        <mxCell id="m214gq9lkK1ID2R3qXPK-203" value="" style="endArrow=none;html=1;rounded=0;exitX=1.001;exitY=0.5;exitDx=0;exitDy=0;exitPerimeter=0;entryX=1.003;entryY=0.495;entryDx=0;entryDy=0;entryPerimeter=0;" parent="1" source="m214gq9lkK1ID2R3qXPK-190" target="m214gq9lkK1ID2R3qXPK-161" edge="1">
          <mxGeometry width="50" height="50" relative="1" as="geometry">
            <mxPoint x="850" y="742" as="sourcePoint" />
            <mxPoint x="1280" y="668.6666666666666" as="targetPoint" />
            <Array as="points">
              <mxPoint x="1200" y="590" />
              <mxPoint x="1200" y="450" />
            </Array>
          </mxGeometry>
        </mxCell>
      </root>
    </mxGraphModel>
  </diagram>
</mxfile>
